<svg t="1778682113691" class="icon" viewBox="0 0 1024 1024" version="1.1"
    xmlns="http://www.w3.org/2000/svg" p-id="1832" width="200" height="200">
    <path
        d="M887.253333 149.546667h-452.266666a8.533333 8.533333 0 0 0-8.533334 8.533333v110.933333c0 4.693333 3.84 8.533333 8.533334 8.533334h452.266666a8.533333 8.533333 0 0 0 8.533334-8.533334v-110.933333a8.533333 8.533333 0 0 0-8.533334-8.533333zM247.253333 149.546667h-110.933333a8.533333 8.533333 0 0 0-8.533333 8.533333v110.933333c0 4.693333 3.84 8.533333 8.533333 8.533334h110.933333a8.533333 8.533333 0 0 0 8.533334-8.533334v-110.933333a8.533333 8.533333 0 0 0-8.533334-8.533333zM887.68 447.786667h-366.933333a8.533333 8.533333 0 0 0-8.533334 8.533333v110.933333c0 4.693333 3.84 8.533333 8.533334 8.533334h366.933333a8.533333 8.533333 0 0 0 8.533333-8.533334v-110.933333a8.533333 8.533333 0 0 0-8.533333-8.533333zM887.68 746.453333h-366.933333a8.533333 8.533333 0 0 0-8.533334 8.533334v110.933333c0 4.693333 3.84 8.533333 8.533334 8.533333h366.933333a8.533333 8.533333 0 0 0 8.533333-8.533333v-110.933333a8.533333 8.533333 0 0 0-8.533333-8.533334z"
        fill="#4E5969" p-id="1833"></path>
    <path
        d="M221.653333 234.88v550.4h466.346667v51.2h-503.466667a8.533333 8.533333 0 0 1-7.509333-4.48l1.962667 0.213333a8.533333 8.533333 0 0 1-8.533334-8.533333v-588.8h51.2z"
        fill="#4E5969" p-id="1834"></path>
    <path d="M688 486.656v51.2h-512v-51.2z" fill="#4E5969" p-id="1835"></path>
</svg>